<svg height="512" viewBox="0 0 60 56" width="512" xmlns="http://www.w3.org/2000/svg"><g id="Page-1" fill="none" fill-rule="evenodd"><g id="012---First-Aid" fill="rgb(0,0,0)" fill-rule="nonzero"><path id="Shape" d="m44.5 0c-8.062 0-12.678 5.749-14.5 8.664-1.822-2.915-6.438-8.664-14.5-8.664-8.836 0-15.5 7.7-15.5 17.91 0 11.178 8.68 19.047 21.818 30.958 2.393 2.17 4.867 4.413 7.5 6.864.3838363.3569554.9781637.3569554 1.362 0 2.634-2.451 5.108-4.694 7.5-6.864 10.037-9.1 17.323-15.717 20.321-23.287 1.400787-.7911841 1.9078285-2.5598194 1.139-3.973.2376525-1.218366.3582017-2.4566736.36-3.698 0-10.21-6.664-17.91-15.5-17.91zm13.5 23c0 .5522847-.4477153 1-1 1h-1c-.5522847 0-1-.4477153-1-1s.4477153-1 1-1h1c.5522847 0 1 .4477153 1 1zm-21.161 24.386c-2.191 1.986-4.449 4.034-6.839 6.249-2.39-2.215-4.648-4.262-6.839-6.249-12.743-11.552-21.161-19.186-21.161-29.476 0-9.07 5.8-15.91 13.5-15.91 9.269 0 13.549 9.046 13.591 9.138.1629473.3553755.5180479.5832039.909.5832039s.7460527-.2278284.909-.5832039c.042-.092 4.322-9.138 13.591-9.138 7.7 0 13.5 6.84 13.5 15.91-.0032503.7450438-.0530138 1.489158-.149 2.228-.2752795-.0878385-.5620691-.1343449-.851-.138h-1c-1.6568542 0-3 1.3431458-3 3s1.3431458 3 3 3h.152c-3.112 6.694-10.008 12.95-19.313 21.386z"/><path id="Shape" d="m6.425 14.234c1.206-5.002 4.768-8.234 9.075-8.234.5522847 0 1-.44771525 1-1s-.4477153-1-1-1c-5.264 0-9.589 3.833-11.02 9.766-.12923462.5370969.20140309 1.0772653.7385 1.2065.53709692.1292346 1.07726536-.2014031 1.2065-.7385z"/><path id="Shape" d="m39 20h-7c-1.0349668-.0032958-1.9977314.5299335-2.544 1.409l-2.584 4.135-6.405-9.252c-.5394265-.7792859-1.4153782-1.2578393-2.362577-1.2907323-.9471988-.0328929-1.8542374.3837433-2.446423 1.1237323l-3.1 3.875h-3.558c-1.65685421 0-2.99999991 1.3431458-2.99999991 3s1.3431457 3 2.99999991 3h5c.9116202.0018499 1.7741462-.4128402 2.342-1.126l1.484-1.855 6.707 9.688c.5592342.8109551 1.4819169 1.2945501 2.467 1.293h.072c1.0102059-.0217668 1.9411301-.5521115 2.475-1.41l4.116-6.59h5.337c1.6568542 0 2.9999999-1.3431458 2.9999999-3s-1.3431457-3-2.9999999-3zm0 4h-5.892c-.3447904-.0000008-.6652611.1776185-.848.47l-4.412 7.06c-.1785461.2850894-.4884637.4613094-.8247614.4689617-.3362976.0076523-.6539099-.1542886-.8452386-.4309617l-7.471-10.792c-.1799602-.2598006-.472142-.4192399-.788-.43h-.035c-.3034277.0001896-.5903577.1381367-.78.375l-2.323 2.9c-.1890654.238636-.4765461.3781434-.781.379h-5c-.55228475 0-1-.4477153-1-1s.44771525-1 1-1h4.039c.3035962-.0004327.5905561-.1387621.78-.376l3.4-4.25c.1976791-.2453217.4994097-.38314.8142651-.3719232.3148554.0112167.606014.1701567.7857349.4289232l7.27 10.5c.1871696.281674.5081342.444812.846.43.3363905-.0075811.6464167-.1838263.825-.469l3.389-5.424c.1829613-.293394.5052429-.4706299.851-.468h7c.5522847 0 1 .4477153 1 1s-.4477153 1-1 1z"/><path id="Shape" d="m48 20h-1c-1.6568542 0-2.9999999 1.3431458-2.9999999 3s1.3431457 3 2.9999999 3h1c1.6568542 0 3-1.3431458 3-3s-1.3431458-3-3-3zm0 4h-1c-.5522847 0-1-.4477153-1-1s.4477153-1 1-1h1c.5522847 0 1 .4477153 1 1s-.4477153 1-1 1z"/></g></g></svg>