<?xml version="1.0" encoding="iso-8859-1"?>
<!-- Generator: Adobe Illustrator 19.0.0, SVG Export Plug-In . SVG Version: 6.00 Build 0)  -->
<svg version="1.1" id="Capa_1" xmlns="http://www.w3.org/2000/svg" xmlns:xlink="http://www.w3.org/1999/xlink" x="0px" y="0px"
	 viewBox="0 0 60 60" style="enable-background:new 0 0 60 60;" xml:space="preserve">
<g>
	<g>
		<path d="M19,15c0.256,0,0.512-0.098,0.707-0.293l4-4c0.391-0.391,0.391-1.023,0-1.414s-1.023-0.391-1.414,0l-4,4
			c-0.391,0.391-0.391,1.023,0,1.414C18.488,14.902,18.744,15,19,15z"/>
		<path d="M19,20c0.256,0,0.512-0.098,0.707-0.293l2-2c0.391-0.391,0.391-1.023,0-1.414s-1.023-0.391-1.414,0l-2,2
			c-0.391,0.391-0.391,1.023,0,1.414C18.488,19.902,18.744,20,19,20z"/>
		<path d="M22.29,14.29C22.109,14.479,22,14.729,22,15c0,0.26,0.109,0.52,0.29,0.71C22.479,15.89,22.74,16,23,16
			s0.52-0.11,0.71-0.29C23.89,15.52,24,15.26,24,15s-0.11-0.521-0.29-0.71C23.33,13.92,22.66,13.92,22.29,14.29z"/>
		<path d="M24.293,13.707C24.488,13.902,24.744,14,25,14s0.512-0.098,0.707-0.293l3-3c0.391-0.391,0.391-1.023,0-1.414
			s-1.023-0.391-1.414,0l-3,3C23.902,12.684,23.902,13.316,24.293,13.707z"/>
		<path d="M27.293,14.293l-9,9c-0.391,0.391-0.391,1.023,0,1.414C18.488,24.902,18.744,25,19,25s0.512-0.098,0.707-0.293l9-9
			c0.391-0.391,0.391-1.023,0-1.414S27.684,13.902,27.293,14.293z"/>
		<path d="M29.29,12.29C29.109,12.479,29,12.74,29,13s0.109,0.52,0.29,0.71C29.479,13.89,29.74,14,30,14s0.52-0.11,0.71-0.29
			C30.89,13.52,31,13.26,31,13s-0.11-0.521-0.29-0.71C30.34,11.92,29.66,11.92,29.29,12.29z"/>
		<path d="M32.293,9.293l-1,1c-0.391,0.391-0.391,1.023,0,1.414C31.488,11.902,31.744,12,32,12s0.512-0.098,0.707-0.293l1-1
			c0.391-0.391,0.391-1.023,0-1.414S32.684,8.902,32.293,9.293z"/>
		<path d="M41.257,0H18.743C15.025,0,12,3.025,12,6.743v46.514C12,56.975,15.025,60,18.743,60h22.514C44.975,60,48,56.975,48,53.257
			V6.743C48,3.025,44.975,0,41.257,0z M46,53.257C46,55.872,43.872,58,41.257,58H18.743C16.128,58,14,55.872,14,53.257V6.743
			C14,4.128,16.128,2,18.743,2h22.514C43.872,2,46,4.128,46,6.743V53.257z"/>
		<path d="M15,51h30V6H15V51z M17,8h26v41H17V8z"/>
		<path d="M27,5h6c0.553,0,1-0.447,1-1s-0.447-1-1-1h-6c-0.553,0-1,0.447-1,1S26.447,5,27,5z"/>
		<path d="M41,5h1c0.553,0,1-0.447,1-1s-0.447-1-1-1h-1c-0.553,0-1,0.447-1,1S40.447,5,41,5z"/>
		<path d="M37,5h1c0.553,0,1-0.447,1-1s-0.447-1-1-1h-1c-0.553,0-1,0.447-1,1S36.447,5,37,5z"/>
		<path d="M32.5,52h-5c-1.379,0-2.5,1.121-2.5,2.5s1.121,2.5,2.5,2.5h5c1.379,0,2.5-1.121,2.5-2.5S33.879,52,32.5,52z M32.5,55h-5
			c-0.271,0-0.5-0.229-0.5-0.5s0.229-0.5,0.5-0.5h5c0.271,0,0.5,0.229,0.5,0.5S32.771,55,32.5,55z"/>
	</g>
</g>
<g>
</g>
<g>
</g>
<g>
</g>
<g>
</g>
<g>
</g>
<g>
</g>
<g>
</g>
<g>
</g>
<g>
</g>
<g>
</g>
<g>
</g>
<g>
</g>
<g>
</g>
<g>
</g>
<g>
</g>
</svg>
